<?xml version="1.0" encoding="utf-8"?>
<?xml-stylesheet type="text/xsl" href="rss1.xsl"?>
<rss version="2.0" xmlns:atom="http://www.w3.org/2005/Atom" xmlns:content="http://purl.org/rss/1.0/modules/content/" xmlns:dc="http://purl.org/dc/elements/1.1/" xmlns:media="http://search.yahoo.com/mrss/">
<channel>
 <title>Getty</title>
 <link>http://www.gettyimg.com/</link>
 <atom:link href="http://www.gettyimg.com/" rel="self" type="application/rss+xml" />

 
                <item>
                <title><![CDATA[【HD Live Performances】WEB-RiP - Die Giovanni Zarrella Show E08 [22-07-23] - ZDF HD 1080p IPTV]]></title>
                <link><![CDATA[https://sharemania.us/threads/die-giovanni-zarrella-show-e08-22-07-23-zdf-hd-1080p-iptv.234839/]]></link>
                <description><![CDATA[<article>
<blockquote class="messageText SelectQuoteContainer ugc baseHtml">
<img src="https://i.imgur.com/ghEDpYz.jpg" class="bbCodeImage LbImage" alt="[​IMG]" data-url="https://i.imgur.com/ghEDpYz.jpg" style=""><br>
<br>
<div class="bbCodeBlock bbCodeCode">
<div class="type">Code:</div>
<pre>General
Complete name                            : Die Giovanni Zarrella Show E08 [22-07-23]- ZDF HD 1080p IPTV.mkv
Format                                   : Matroska
Format version                           : Version 4
File size                                : 10.3 GiB
Duration                                 : 3 h 4 min
Overall bit rate                         : 7 972 kb/s
Encoded date                             : UTC 2023-12-28 21:55:27
Writing application                      : mkvmerge v55.0.0 ('Waiting For Space') 64-bit
Writing library                          : libebml v1.4.2 + libmatroska v1.6.4
Video
ID                                       : 1
Format                                   : AVC
Format/Info                              : Advanced Video Codec
Format profile                           : Main@L4.2
Format settings                          : CABAC / 2 Ref Frames
Format settings, CABAC                   : Yes
Format settings, Reference frames        : 2 frames
Codec ID                                 : V_MPEG4/ISO/AVC
Duration                                 : 3 h 4 min
Bit rate                                 : 7 584 kb/s
Width                                    : 1 920 pixels
Height                                   : 1 080 pixels
Display aspect ratio                     : 16:9
Frame rate mode                          : Constant
Frame rate                               : 50.000 FPS
Color space                              : YUV
Chroma subsampling                       : 4:2:0
Bit depth                                : 8 bits
Scan type                                : Progressive
Bits/(Pixel*Frame)                       : 0.073
Stream size                              : 9.76 GiB (95%)
Language                                 : German
Default                                  : Yes
Forced                                   : No
Audio #1
ID                                       : 2
Format                                   : E-AC-3
Format/Info                              : Enhanced AC-3
Commercial name                          : Dolby Digital Plus
Codec ID                                 : A_EAC3
Duration                                 : 3 h 4 min
Bit rate mode                            : Constant
Bit rate                                 : 256 kb/s
Channel(s)                               : 6 channels
Channel layout                           : L R C LFE Ls Rs
Sampling rate                            : 48.0 kHz
Frame rate                               : 31.250 FPS (1536 SPF)
Compression mode                         : Lossy
Stream size                              : 338 MiB (3%)
Language                                 : German
Service kind                             : Complete Main
Default                                  : Yes
Forced                                   : No
Audio #2
ID                                       : 3
Format                                   : AAC LC
Format/Info                              : Advanced Audio Codec Low Complexity
Codec ID                                 : A_AAC-2
Duration                                 : 3 h 4 min
Bit rate                                 : 128 kb/s
Channel(s)                               : 2 channels
Channel layout                           : L R
Sampling rate                            : 48.0 kHz
Frame rate                               : 46.875 FPS (1024 SPF)
Compression mode                         : Lossy
Stream size                              : 168 MiB (2%)
Language                                 : German
Default                                  : No
Forced                                   : No
Text
ID                                       : 4
Format                                   : UTF-8
Codec ID                                 : S_TEXT/UTF8
Codec ID/Info                            : UTF-8 Plain Text
Duration                                 : 3 h 3 min
Bit rate                                 : 52 b/s
Count of elements                        : 1841
Stream size                              : 70.8 KiB (0%)
Language                                 : German
Default                                  : No
Forced                                   : No
</pre>
</div>Pixeldrain:<br>
<div class="bbCodeBlock bbCodeVfcHH HiddenContent">
<div class="attribution type">Hidden Content:</div>
<blockquote>You must reply before you can see the hidden data contained here.</blockquote>
</div>
<div class="messageTextEndMarker">&nbsp;</div>
</blockquote>
</article>]]></description>
                <author><![CDATA[LLAVE1]]></author>
                </item>

                
                <item>
                <title><![CDATA[【Cinema Center】MOVIE - GhostForce: Christmas special - Panikokado (HBOMAX/HD720P/DD2.0)]]></title>
                <link><![CDATA[https://sharemania.us/threads/ghostforce-christmas-special-panikokado-hbomax-hd720p-dd2-0.234837/]]></link>
                <description><![CDATA[<article>
<blockquote class="messageText SelectQuoteContainer ugc baseHtml">
<b>Video:</b><br>
<i>1280x720p (mp4; 29.97fps)</i><br>
<b>Audio:</b><br>
<i>English (AC3 2.0)<br>
Latin Spanish <i>(AC3 2.0)<br>
Brazilian <i>(AC3 2.0)</i></i></i><br>
<i><i><i><br>
<div class="bbCodeBlock bbCodeVfcHH HiddenContent">
<div class="attribution type">Hidden Content:</div>
<blockquote>You must reply before you can see the hidden data contained here.</blockquote>
</div></i></i></i>
<div class="messageTextEndMarker">&nbsp;</div>
</blockquote>
</article>]]></description>
                <author><![CDATA[Lakley]]></author>
                </item>

                
                <item>
                <title><![CDATA[【Singles (lossless)】FLAC - Vanessa Hudgens - Come Back To Me (CDS Australia) (2006)]]></title>
                <link><![CDATA[https://sharemania.us/threads/vanessa-hudgens-come-back-to-me-cds-australia-2006.234838/]]></link>
                <description><![CDATA[<article>
<blockquote class="messageText SelectQuoteContainer ugc baseHtml">
<img src="https://i.discogs.com/LjT15l-lyu4MpfXVfi0GuoDH3cCbFTHNFcy62Uah3B8/rs:fit/g:sm/q:90/h:336/w:393/czM6Ly9kaXNjb2dz/LWRhdGFiYXNlLWlt/YWdlcy9SLTUyOTky/MTEtMTM4OTk1NzE5/NS0zMjY4LmpwZWc.jpeg" class="bbCodeImage LbImage" alt="[​IMG]" data-url="https://i.discogs.com/LjT15l-lyu4MpfXVfi0GuoDH3cCbFTHNFcy62Uah3B8/rs:fit/g:sm/q:90/h:336/w:393/czM6Ly9kaXNjb2dz/LWRhdGFiYXNlLWlt/YWdlcy9SLTUyOTky/MTEtMTM4OTk1NzE5/NS0zMjY4LmpwZWc.jpeg" style=""> <br>
<a href="https://www.discogs.com/es/release/5299211-Vanessa-Hudgens-Come-Back-To-Me" target="_blank" class="externalLink" rel="nofollow">https://www.discogs.com/es/release/5299211-Vanessa-Hudgens-Come-Back-To-Me</a><br>
<i><b><span style="font-size: 26px">Tracklist</span></b></i><br>
<span style="font-size: 22px">1 - Come Back To Me 2:46<br>
2 - Too Emotional 2:50<br>
3 - When There Was Me And You 3:00</span><br>
<div class="bbCodeBlock bbCodeVfcHH HiddenContent">
<div class="attribution type">Hidden Content:</div>
<blockquote>You must reply before you can see the hidden data contained here.</blockquote>
</div>
<div class="messageTextEndMarker">&nbsp;</div>
</blockquote>
</article>]]></description>
                <author><![CDATA[rominuchiis]]></author>
                </item>

                </channel></rss>